- 
http://www.Speed.Cd 
       
http://www.Speed.Cd       the fast  and The Hottest Private Tracker on the net

(((--Registration will be open on june every weekend--)))

Please Seed back to make the speed Faster!!!

------------------nfo--------------------------
-Another dvdrip bought to you by MRFIXIT enjoy!!
 [b][size=4][color=blue]Cry_Wolf uncut[b][size=4][color=blue]
[IMG]http://i1085.photobucket.com/albums/j439/ifooku/517ZBSNBRQL_SL500_AA300_.jpg[/IMG]
General
Complete name                    : C:\Cry_Wolf-uncut-Dvdrip-Xvid-MRFIXIT.avi
Format                           : AVI
Format/Info                      : Audio Video Interleave
File size                        : 744 MiB
Duration                         : 1h 26mn
Overall bit rate                 : 1 200 Kbps
Writing application              : MEncoder version Beta 4.4.5 building on 20110111
Writing library                  : [= DigiArty videodll! =]
Video
ID                               : 0
Format                           : MPEG-4 Visual
Format profile                   : Advanced Simple@L5
Format settings, BVOP            : 2
Format settings, QPel            : No
Format settings, GMC             : No warppoints
Format settings, Matrix          : Default (H.263)
Codec ID                         : XVID
Codec ID/Hint                    : XviD
Duration                         : 1h 26mn
Bit rate                         : 1 058 Kbps
Width                            : 720 pixels
Height                           : 404 pixels
Display aspect ratio             : 16:9
Frame rate                       : 29.970 fps
Color space                      : YUV
Chroma subsampling               : 4:2:0
Bit depth                        : 8 bits
Scan type                        : Progressive
Compression mode                 : Lossy
Bits/(Pixel*Frame)               : 0.121
Stream size                      : 656 MiB (88%)
Writing library                  : XviD 1.2.1 (UTC 2008-12-04)

Audio
ID                               : 1
Format                           : MPEG Audio
Format version                   : Version 1
Format profile                   : Layer 3
Codec ID                         : 55
Codec ID/Hint                    : MP3
Duration                         : 1h 26mn
Bit rate mode                    : Constant
Bit rate                         : 128 Kbps
Channel(s)                       : 2 channels
Sampling rate                    : 48.0 KHz
Compression mode                 : Lossy
Delay relative to video          : 33ms
Stream size                      : 79.4 MiB (11%)
Alignment                        : Aligned on interleaves
Interleave, duration             : 24 ms (0.72 video frame)
Interleave, preload duration     : 504 ms
Writing library                  : LAME3.98.4

Eight unsuspecting high school seniors at a posh boarding school, who delight themselves on playing games of lies, come face-to-face with terror and learn that nobody believes a liar - even when they're telling the truth.
[IMG]http://i1085.photobucket.com/albums/j439/ifooku/1-44.png[/IMG]
[IMG]http://i1085.photobucket.com/albums/j439/ifooku/2-40.png[/IMG]
[IMG]http://i1085.photobucket.com/albums/j439/ifooku/3-37.png[/IMG]
[IMG]http://i1085.photobucket.com/albums/j439/ifooku/4-37.png[/IMG]
[IMG]http://i1085.photobucket.com/albums/j439/ifooku/5-29.png[/IMG]
[IMG]http://i1085.photobucket.com/albums/j439/ifooku/6-13.png[/IMG]
Greetz to all p2p groups past and present......and on a special note no love lost i shed a tear!!